<svg width="69" height="68" viewBox="0 0 69 68" fill="none" xmlns="http://www.w3.org/2000/svg">
<g filter="url(#filter0_d_95_39)">
<rect x="4.5" width="60" height="60" fill="#68B738"/>
<ellipse cx="39.7042" cy="24.3299" rx="1.0873" ry="1.08512" fill="white"/>
<ellipse cx="28.8311" cy="24.3299" rx="1.08731" ry="1.08512" fill="white"/>
<ellipse cx="28.8311" cy="37.3512" rx="1.08731" ry="1.08512" fill="white"/>
<ellipse cx="34.2677" cy="39.5215" rx="1.0873" ry="1.08512" fill="white"/>
<ellipse cx="25.5692" cy="30.7748" rx="1.08731" ry="1.08512" fill="white"/>
<ellipse cx="42.9661" cy="30.7748" rx="1.0873" ry="1.08512" fill="white"/>
<ellipse cx="39.7042" cy="37.3512" rx="1.0873" ry="1.08512" fill="white"/>
<mask id="path-9-inside-1_95_39" fill="white">
<path fill-rule="evenodd" clip-rule="evenodd" d="M39.4215 42.0581C39.8298 41.8622 40.3226 41.9298 40.6385 42.2542L42.4644 44.1292C42.7319 44.4039 43.1734 44.4039 43.441 44.1292C43.6987 43.8645 43.6987 43.4427 43.441 43.1781L42.0843 41.7849C41.6584 41.3475 41.7228 40.6356 42.182 40.2333C44.8238 37.9195 46.5 34.4688 46.5 30.6145C46.5 23.6477 41.0235 18 34.2678 18C27.5122 18 22.0356 23.6477 22.0356 30.6145C22.0356 34.4288 23.6773 37.8477 26.2717 40.1608C26.7244 40.5644 26.7849 41.2708 26.3617 41.7054L24.9276 43.1781C24.6698 43.4427 24.6698 43.8645 24.9276 44.1291C25.1951 44.4039 25.6366 44.4039 25.9042 44.1292L27.7838 42.199C28.1025 41.8718 28.6004 41.8061 29.0102 42.0076C30.603 42.7907 32.3858 43.229 34.2678 43.229C36.109 43.229 37.8553 42.8095 39.4215 42.0581ZM34.2678 41.8274C40.2728 41.8274 45.1409 36.8072 45.1409 30.6145C45.1409 24.4218 40.2728 19.4016 34.2678 19.4016C28.2628 19.4016 23.3948 24.4218 23.3948 30.6145C23.3948 36.8072 28.2628 41.8274 34.2678 41.8274ZM33.5083 30.298V26.5001V22.9409C33.5083 22.5094 33.8581 22.1596 34.2895 22.1596C34.721 22.1596 35.0708 22.5094 35.0708 22.9409V26.5001V30.298V30.8406V31.1226C35.0708 31.5661 34.7113 31.9257 34.2677 31.9257C33.8483 31.9257 33.5083 31.5857 33.5083 31.1663V30.8406V30.298Z"/>
</mask>
<path fill-rule="evenodd" clip-rule="evenodd" d="M39.4215 42.0581C39.8298 41.8622 40.3226 41.9298 40.6385 42.2542L42.4644 44.1292C42.7319 44.4039 43.1734 44.4039 43.441 44.1292C43.6987 43.8645 43.6987 43.4427 43.441 43.1781L42.0843 41.7849C41.6584 41.3475 41.7228 40.6356 42.182 40.2333C44.8238 37.9195 46.5 34.4688 46.5 30.6145C46.5 23.6477 41.0235 18 34.2678 18C27.5122 18 22.0356 23.6477 22.0356 30.6145C22.0356 34.4288 23.6773 37.8477 26.2717 40.1608C26.7244 40.5644 26.7849 41.2708 26.3617 41.7054L24.9276 43.1781C24.6698 43.4427 24.6698 43.8645 24.9276 44.1291C25.1951 44.4039 25.6366 44.4039 25.9042 44.1292L27.7838 42.199C28.1025 41.8718 28.6004 41.8061 29.0102 42.0076C30.603 42.7907 32.3858 43.229 34.2678 43.229C36.109 43.229 37.8553 42.8095 39.4215 42.0581ZM34.2678 41.8274C40.2728 41.8274 45.1409 36.8072 45.1409 30.6145C45.1409 24.4218 40.2728 19.4016 34.2678 19.4016C28.2628 19.4016 23.3948 24.4218 23.3948 30.6145C23.3948 36.8072 28.2628 41.8274 34.2678 41.8274ZM33.5083 30.298V26.5001V22.9409C33.5083 22.5094 33.8581 22.1596 34.2895 22.1596C34.721 22.1596 35.0708 22.5094 35.0708 22.9409V26.5001V30.298V30.8406V31.1226C35.0708 31.5661 34.7113 31.9257 34.2677 31.9257C33.8483 31.9257 33.5083 31.5857 33.5083 31.1663V30.8406V30.298Z" fill="white"/>
<path d="M27.7838 42.199L30.6495 44.9896L27.7838 42.199ZM29.0102 42.0076L30.775 38.418L29.0102 42.0076ZM25.9042 44.1292L23.0385 41.3385L25.9042 44.1292ZM24.9276 43.1781L27.7932 45.9687L24.9276 43.1781ZM42.0843 41.7849L39.2186 44.5756L42.0843 41.7849ZM42.182 40.2333L39.5465 37.2243L42.182 40.2333ZM26.2717 40.1608L23.6097 43.1464L26.2717 40.1608ZM26.3617 41.7054L23.4961 38.9147L26.3617 41.7054ZM43.441 43.1781L46.3067 40.3874L43.441 43.1781ZM42.4644 44.1292L45.3301 41.3385L42.4644 44.1292ZM40.6385 42.2542L37.7728 45.0449L40.6385 42.2542ZM39.4215 42.0581L37.6913 38.4516L39.4215 42.0581ZM37.7728 45.0449L39.5987 46.9198L45.3301 41.3385L43.5042 39.4636L37.7728 45.0449ZM46.3067 40.3874L44.95 38.9942L39.2186 44.5756L40.5753 45.9688L46.3067 40.3874ZM44.8175 43.2423C48.3075 40.1855 50.5 35.6466 50.5 30.6145H42.5C42.5 33.2911 41.3401 35.6534 39.5465 37.2243L44.8175 43.2423ZM50.5 30.6145C50.5 21.5555 43.3478 14 34.2678 14V22C38.6992 22 42.5 25.7399 42.5 30.6145H50.5ZM34.2678 14C25.1879 14 18.0356 21.5555 18.0356 30.6145H26.0356C26.0356 25.7399 29.8365 22 34.2678 22V14ZM18.0356 30.6145C18.0356 35.5943 20.183 40.0912 23.6097 43.1464L28.9336 37.1752C27.1716 35.6042 26.0356 33.2633 26.0356 30.6145H18.0356ZM23.4961 38.9147L22.0619 40.3874L27.7932 45.9687L29.2274 44.496L23.4961 38.9147ZM28.7699 46.9198L30.6495 44.9896L24.9181 39.4083L23.0385 41.3385L28.7699 46.9198ZM27.2454 45.5972C29.3722 46.6429 31.7573 47.229 34.2678 47.229V39.229C33.0143 39.229 31.8337 38.9385 30.775 38.418L27.2454 45.5972ZM34.2678 47.229C36.7236 47.229 39.0598 46.6681 41.1517 45.6645L37.6913 38.4516C36.6508 38.9508 35.4944 39.229 34.2678 39.229V47.229ZM34.2678 45.8274C42.5971 45.8274 49.1409 38.8994 49.1409 30.6145H41.1409C41.1409 34.715 37.9485 37.8274 34.2678 37.8274V45.8274ZM49.1409 30.6145C49.1409 22.3296 42.5971 15.4016 34.2678 15.4016V23.4016C37.9485 23.4016 41.1409 26.514 41.1409 30.6145H49.1409ZM34.2678 15.4016C25.9385 15.4016 19.3948 22.3296 19.3948 30.6145H27.3948C27.3948 26.514 30.5871 23.4016 34.2678 23.4016V15.4016ZM19.3948 30.6145C19.3948 38.8994 25.9385 45.8274 34.2678 45.8274V37.8274C30.5871 37.8274 27.3948 34.715 27.3948 30.6145H19.3948ZM31.0708 30.298V30.8406H39.0708V30.298H31.0708ZM31.0708 30.8406V31.1226H39.0708V30.8406H31.0708ZM37.5083 31.1663V30.8406H29.5083V31.1663H37.5083ZM37.5083 30.8406V30.298H29.5083V30.8406H37.5083ZM37.5083 30.298V26.5001H29.5083V30.298H37.5083ZM37.5083 26.5001V22.9409H29.5083V26.5001H37.5083ZM31.0708 22.9409V26.5001H39.0708V22.9409H31.0708ZM31.0708 26.5001V30.298H39.0708V26.5001H31.0708ZM34.2895 18.1596C31.6489 18.1596 29.5083 20.3003 29.5083 22.9409H37.5083C37.5083 24.7186 36.0672 26.1596 34.2895 26.1596V18.1596ZM31.0708 31.1226C31.0708 29.357 32.5021 27.9257 34.2677 27.9257V35.9257C36.9204 35.9257 39.0708 33.7753 39.0708 31.1226H31.0708ZM30.6495 44.9896C29.6569 46.009 28.2521 46.0922 27.2454 45.5972L30.775 38.418C28.9487 37.52 26.548 37.7346 24.9181 39.4083L30.6495 44.9896ZM22.0619 46.9198C23.8997 48.807 26.9321 48.807 28.7699 46.9198L23.0385 41.3385C24.3412 40.0008 26.4906 40.0008 27.7933 41.3385L22.0619 46.9198ZM22.0619 40.3874C20.2917 42.2051 20.2917 45.1021 22.0619 46.9198L27.7933 41.3385C29.048 42.6269 29.0479 44.6803 27.7932 45.9687L22.0619 40.3874ZM44.95 38.9942C46.2927 40.3731 45.894 42.2994 44.8175 43.2423L39.5465 37.2243C37.5515 38.9717 37.024 42.3219 39.2186 44.5756L44.95 38.9942ZM34.2895 26.1596C32.5119 26.1596 31.0708 24.7186 31.0708 22.9409H39.0708C39.0708 20.3003 36.9302 18.1596 34.2895 18.1596V26.1596ZM23.6097 43.1464C22.5463 42.1983 22.1626 40.2839 23.4961 38.9147L29.2274 44.496C31.4071 42.2577 30.9025 38.9306 28.9336 37.1752L23.6097 43.1464ZM46.3067 46.9198C48.0768 45.1021 48.0768 42.2051 46.3067 40.3874L40.5753 45.9688C39.3206 44.6803 39.3206 42.6269 40.5753 41.3385L46.3067 46.9198ZM39.5987 46.9198C41.4365 48.807 44.4689 48.807 46.3067 46.9198L40.5753 41.3385C41.878 40.0008 44.0274 40.0008 45.3301 41.3385L39.5987 46.9198ZM34.2677 27.9257C36.0574 27.9257 37.5083 29.3765 37.5083 31.1663H29.5083C29.5083 33.7948 31.6391 35.9257 34.2677 35.9257V27.9257ZM43.5042 39.4636C41.8881 37.804 39.5117 37.5783 37.6913 38.4516L41.1517 45.6645C40.148 46.1461 38.757 46.0555 37.7728 45.0449L43.5042 39.4636Z" fill="white" mask="url(#path-9-inside-1_95_39)"/>
<rect x="33.5" y="19" width="4" height="1.5" transform="rotate(-90 33.5 19)" fill="white"/>
<rect x="26.5" y="15" width="15.5" height="1.5" rx="0.75" fill="white"/>
</g>
<defs>
<filter id="filter0_d_95_39" x="0.5" y="0" width="68" height="68" filterUnits="userSpaceOnUse" color-interpolation-filters="sRGB">
<feFlood flood-opacity="0" result="BackgroundImageFix"/>
<feColorMatrix in="SourceAlpha" type="matrix" values="0 0 0 0 0 0 0 0 0 0 0 0 0 0 0 0 0 0 127 0" result="hardAlpha"/>
<feOffset dy="4"/>
<feGaussianBlur stdDeviation="2"/>
<feComposite in2="hardAlpha" operator="out"/>
<feColorMatrix type="matrix" values="0 0 0 0 0 0 0 0 0 0 0 0 0 0 0 0 0 0 0.25 0"/>
<feBlend mode="normal" in2="BackgroundImageFix" result="effect1_dropShadow_95_39"/>
<feBlend mode="normal" in="SourceGraphic" in2="effect1_dropShadow_95_39" result="shape"/>
</filter>
</defs>
</svg>
